<svg width="564" height="564" viewBox="0 0 564 564" fill="none" xmlns="http://www.w3.org/2000/svg">
<circle cx="282" cy="282" r="282" fill="#AF6E0E"/>
<circle cx="282" cy="282" r="256" fill="#D9D9D9"/>
<circle cx="282" cy="282" r="256" fill="#D9D9D9"/>
<path d="M26.2017 271.839C28.7884 206.718 56.1147 145.035 102.61 99.3663C149.104 53.6971 211.267 27.4803 276.424 26.0607C341.581 24.6412 404.826 48.1258 453.266 91.7267C501.706 135.328 531.693 195.762 537.113 260.708L282 282L26.2017 271.839Z" fill="#1D7E23"/>
<path d="M51.4257 393.227C32.8037 354.624 24.172 311.963 26.3224 269.156L282 282L51.4257 393.227Z" fill="#C2B41A"/>
<path d="M523.28 196.442C537.604 236.838 541.557 280.184 534.775 322.505L282 282L523.28 196.442Z" fill="#C2B41A"/>
<path d="M534.842 322.087C527.142 370.652 505.619 415.972 472.845 452.629C440.072 489.285 397.435 515.728 350.031 528.795L282 282L534.842 322.087Z" fill="#A41A1D"/>
</svg>
