<svg width="564" height="564" viewBox="0 0 564 564" fill="none" xmlns="http://www.w3.org/2000/svg">
<circle cx="282" cy="282" r="282" fill="#AF6E0E"/>
<circle cx="282" cy="282" r="256" fill="#D9D9D9"/>
<circle cx="282" cy="282" r="256" fill="#D9D9D9"/>
<path d="M26.2017 271.839C27.8246 230.982 39.2107 191.108 59.407 155.555C79.6032 120.002 108.022 89.8032 142.285 67.4873C176.548 45.1715 215.657 31.3875 256.341 27.2892C297.024 23.1908 338.097 28.8972 376.123 43.9309L282 282L26.2017 271.839Z" fill="#1D7E23"/>
<path d="M100.981 463.019C75.8452 437.884 56.2198 407.789 43.3546 374.652C30.4894 341.515 24.6663 306.061 26.2562 270.55L282 282L100.981 463.019Z" fill="#C2B41A"/>
<path d="M375.027 43.5008C418.099 60.301 455.817 88.4516 484.177 124.964C512.537 161.476 530.48 204.986 536.101 250.875L282 282L375.027 43.5008Z" fill="#C2B41A"/>
<path d="M536.231 251.955C542.002 300.787 533.587 350.247 511.993 394.423C490.4 438.599 456.54 475.622 414.463 501.065L282 282L536.231 251.955Z" fill="#A41A1D"/>
</svg>
